# Wavefront OBJ file automatically generated by Tiled2Unity

# Vertices (Count = 121)
v 0 -1 0
v -1 -1 0
v -1 0 0
v 0 0 0
v -2 -1 0
v -2 0 0
v -3 -1 0
v -3 0 0
v -4 -1 0
v -4 0 0
v -6 -1 0
v -7 -1 0
v -7 0 0
v -6 0 0
v -8 -1 0
v -8 0 0
v -9 -1 0
v -9 0 0
v -10 -1 0
v -10 0 0
v 0 -2 0
v -1 -2 0
v -2 -2 0
v -3 -2 0
v -4 -2 0
v -5 -2 0
v -5 -1 0
v -6 -2 0
v -7 -2 0
v -8 -2 0
v -9 -2 0
v -10 -2 0
v 0 -3 0
v -1 -3 0
v -9 -3 0
v -10 -3 0
v 0 -4 0
v -1 -4 0
v -9 -4 0
v -10 -4 0
v 0 -5 0
v -1 -5 0
v -9 -5 0
v -10 -5 0
v 0 -6 0
v -1 -6 0
v -9 -6 0
v -10 -6 0
v 0 -7 0
v -1 -7 0
v -9 -7 0
v -10 -7 0
v 0 -8 0
v -1 -8 0
v -9 -8 0
v -10 -8 0
v 0 -9 0
v -1 -9 0
v -9 -9 0
v -10 -9 0
v 0 -10 0
v -1 -10 0
v -2 -10 0
v -2 -9 0
v -3 -10 0
v -3 -9 0
v -4 -10 0
v -4 -9 0
v -5 -10 0
v -5 -9 0
v -6 -10 0
v -6 -9 0
v -7 -10 0
v -7 -9 0
v -8 -10 0
v -8 -9 0
v -9 -10 0
v -10 -10 0
v -5 0 0
v -2 -3 0
v -3 -3 0
v -4 -3 0
v -5 -3 0
v -6 -3 0
v -7 -3 0
v -8 -3 0
v -2 -4 0
v -3 -4 0
v -4 -4 0
v -5 -4 0
v -6 -4 0
v -7 -4 0
v -8 -4 0
v -2 -5 0
v -3 -5 0
v -4 -5 0
v -5 -5 0
v -6 -5 0
v -7 -5 0
v -8 -5 0
v -2 -6 0
v -3 -6 0
v -4 -6 0
v -5 -6 0
v -6 -6 0
v -7 -6 0
v -8 -6 0
v -2 -7 0
v -3 -7 0
v -4 -7 0
v -5 -7 0
v -6 -7 0
v -7 -7 0
v -8 -7 0
v -2 -8 0
v -3 -8 0
v -4 -8 0
v -5 -8 0
v -6 -8 0
v -7 -8 0
v -8 -8 0

# Texture cooridinates (Count = 160)
vt 0.7333374 0.7666707
vt 0.7666626 0.7666707
vt 0.7666626 0.7999959
vt 0.7333374 0.7999959
vt 0.7666708 0.7666707
vt 0.799996 0.7666707
vt 0.799996 0.7999959
vt 0.7666708 0.7999959
vt 0.8000041 0.7666707
vt 0.8333293 0.7666707
vt 0.8333293 0.7999959
vt 0.8000041 0.7999959
vt 0.7333374 0.7333374
vt 0.7666626 0.7333374
vt 0.7666626 0.7666626
vt 0.7333374 0.7666626
vt 0.8333374 0.7666707
vt 0.8666626 0.7666707
vt 0.8666626 0.7999959
vt 0.8333374 0.7999959
vt 0.8666707 0.7666707
vt 0.8999959 0.7666707
vt 0.8999959 0.7999959
vt 0.8666707 0.7999959
vt 0.700004 0.7333374
vt 0.7333292 0.7333374
vt 0.7333292 0.7666626
vt 0.700004 0.7666626
vt 0.700004 0.7666707
vt 0.7333292 0.7666707
vt 0.7333292 0.7999959
vt 0.700004 0.7999959
vt 0.6666707 0.7000041
vt 0.6999959 0.7000041
vt 0.6999959 0.7333293
vt 0.6666707 0.7333293
vt 0.7333374 0.8333374
vt 0.7666626 0.8333374
vt 0.7666626 0.8666626
vt 0.7333374 0.8666626
vt 0.6666707 0.8333374
vt 0.6999959 0.8333374
vt 0.6999959 0.8666626
vt 0.6666707 0.8666626
vt 0.8000041 0.8333374
vt 0.8333293 0.8333374
vt 0.8333293 0.8666626
vt 0.8000041 0.8666626
vt 0.700004 0.8666707
vt 0.7333292 0.8666707
vt 0.7333292 0.8999959
vt 0.700004 0.8999959
vt 0.7666708 0.8333374
vt 0.799996 0.8333374
vt 0.799996 0.8666626
vt 0.7666708 0.8666626
vt 0.7333374 0.9666708
vt 0.7666626 0.9666708
vt 0.7666626 0.9999959
vt 0.7333374 0.9999959
vt 0.700004 0.9666708
vt 0.7333292 0.9666708
vt 0.7333292 0.9999959
vt 0.700004 0.9999959
vt 0.5333374 0.3666707
vt 0.5666626 0.3666707
vt 0.5666626 0.3999959
vt 0.5333374 0.3999959
vt 0.5666707 0.3666707
vt 0.5999959 0.3666707
vt 0.5999959 0.3999959
vt 0.5666707 0.3999959
vt 0.5333374 0.4000041
vt 0.5666626 0.4000041
vt 0.5666626 0.4333293
vt 0.5333374 0.4333293
vt 0.1333374 0.8000041
vt 0.1666626 0.8000041
vt 0.1666626 0.8333293
vt 0.1333374 0.8333293
vt 0.1666707 0.8000041
vt 0.1999959 0.8000041
vt 0.1999959 0.8333293
vt 0.1666707 0.8333293
vt 0.6333374 0.9000041
vt 0.6666626 0.9000041
vt 0.6666626 0.9333293
vt 0.6333374 0.9333293
vt 0.4666707 0.6666707
vt 0.4999959 0.6666707
vt 0.4999959 0.6999959
vt 0.4666707 0.6999959
vt 0.5000041 0.6666707
vt 0.5333292 0.6666707
vt 0.5333292 0.6999959
vt 0.5000041 0.6999959
vt 0.1333374 0.7666707
vt 0.1666626 0.7666707
vt 0.1666626 0.7999959
vt 0.1333374 0.7999959
vt 0.1666707 0.7666707
vt 0.1999959 0.7666707
vt 0.1999959 0.7999959
vt 0.1666707 0.7999959
vt 0.4666707 0.6333374
vt 0.4999959 0.6333374
vt 0.4999959 0.6666626
vt 0.4666707 0.6666626
vt 0.5000041 0.6333374
vt 0.5333292 0.6333374
vt 0.5333292 0.6666626
vt 0.5000041 0.6666626
vt 0.4666707 0.6000041
vt 0.4999959 0.6000041
vt 0.4999959 0.6333293
vt 0.4666707 0.6333293
vt 0.5000041 0.6000041
vt 0.5333292 0.6000041
vt 0.5333292 0.6333293
vt 0.5000041 0.6333293
vt 0.1333374 0.8333374
vt 0.1666626 0.8333374
vt 0.1666626 0.8666626
vt 0.1333374 0.8666626
vt 0.5666707 0.4000041
vt 0.5999959 0.4000041
vt 0.5999959 0.4333293
vt 0.5666707 0.4333293
vt 0.6666707 0.9666708
vt 0.6999959 0.9666708
vt 0.6999959 0.9999959
vt 0.6666707 0.9999959
vt 0.8666707 0.9666708
vt 0.8999959 0.9666708
vt 0.8999959 0.9999959
vt 0.8666707 0.9999959
vt 0.6666707 0.7666707
vt 0.6999959 0.7666707
vt 0.6999959 0.7999959
vt 0.6666707 0.7999959
vt 0.1333374 0.9000041
vt 0.1666626 0.9000041
vt 0.1666626 0.9333293
vt 0.1333374 0.9333293
vt 0.1333374 0.8666707
vt 0.1666626 0.8666707
vt 0.1666626 0.8999959
vt 0.1333374 0.8999959
vt 0.8666707 0.1000041
vt 0.8999959 0.1000041
vt 0.8999959 0.1333293
vt 0.8666707 0.1333293
vt 0.9000041 0.1000041
vt 0.9333293 0.1000041
vt 0.9333293 0.1333293
vt 0.9000041 0.1333293
vt 0.0001220703 0.0001220703
vt 0.9998779 0.0001220703
vt 0.9998779 0.9998779
vt 0.0001220703 0.9998779

# Normal
vn 0 0 -1

# Groups (Count = 7)

g mesh_0001
f 1/1/1 2/2/1 3/3/1 4/4/1
f 2/5/1 5/6/1 6/7/1 3/8/1
f 5/9/1 7/10/1 8/11/1 6/12/1
f 7/13/1 9/14/1 10/15/1 8/16/1
f 11/5/1 12/6/1 13/7/1 14/8/1
f 12/9/1 15/10/1 16/11/1 13/12/1
f 15/17/1 17/18/1 18/19/1 16/20/1
f 17/21/1 19/22/1 20/23/1 18/24/1
f 21/25/1 22/26/1 2/27/1 1/28/1
f 22/29/1 23/30/1 5/31/1 2/32/1
f 23/29/1 24/30/1 7/31/1 5/32/1
f 24/29/1 25/30/1 9/31/1 7/32/1
f 25/29/1 26/30/1 27/31/1 9/32/1
f 26/29/1 28/30/1 11/31/1 27/32/1
f 28/29/1 29/30/1 12/31/1 11/32/1
f 29/29/1 30/30/1 15/31/1 12/32/1
f 30/29/1 31/30/1 17/31/1 15/32/1
f 31/33/1 32/34/1 19/35/1 17/36/1
f 33/37/1 34/38/1 22/39/1 21/40/1
f 35/41/1 36/42/1 32/43/1 31/44/1
f 37/37/1 38/38/1 34/39/1 33/40/1
f 39/41/1 40/42/1 36/43/1 35/44/1
f 41/37/1 42/38/1 38/39/1 37/40/1
f 43/41/1 44/42/1 40/43/1 39/44/1
f 45/37/1 46/38/1 42/39/1 41/40/1
f 47/41/1 48/42/1 44/43/1 43/44/1
f 49/37/1 50/38/1 46/39/1 45/40/1
f 51/41/1 52/42/1 48/43/1 47/44/1
f 53/37/1 54/38/1 50/39/1 49/40/1
f 55/41/1 56/42/1 52/43/1 51/44/1
f 57/37/1 58/38/1 54/39/1 53/40/1
f 59/41/1 60/42/1 56/43/1 55/44/1
f 61/45/1 62/46/1 58/47/1 57/48/1
f 62/49/1 63/50/1 64/51/1 58/52/1
f 63/49/1 65/50/1 66/51/1 64/52/1
f 65/49/1 67/50/1 68/51/1 66/52/1
f 67/49/1 69/50/1 70/51/1 68/52/1
f 69/49/1 71/50/1 72/51/1 70/52/1
f 71/49/1 73/50/1 74/51/1 72/52/1
f 73/49/1 75/50/1 76/51/1 74/52/1
f 75/49/1 77/50/1 59/51/1 76/52/1
f 77/53/1 78/54/1 60/55/1 59/56/1

g mesh_0002
f 9/57/1 27/58/1 79/59/1 10/60/1
f 27/61/1 11/62/1 14/63/1 79/64/1
f 34/49/1 80/50/1 23/51/1 22/52/1
f 80/49/1 81/50/1 24/51/1 23/52/1
f 81/49/1 82/50/1 25/51/1 24/52/1
f 82/49/1 83/50/1 26/51/1 25/52/1
f 83/49/1 84/50/1 28/51/1 26/52/1
f 84/49/1 85/50/1 29/51/1 28/52/1
f 85/49/1 86/50/1 30/51/1 29/52/1
f 86/49/1 35/50/1 31/51/1 30/52/1
f 38/49/1 87/50/1 80/51/1 34/52/1
f 87/49/1 88/50/1 81/51/1 80/52/1
f 88/49/1 89/50/1 82/51/1 81/52/1
f 89/49/1 90/50/1 83/51/1 82/52/1
f 90/49/1 91/50/1 84/51/1 83/52/1
f 91/49/1 92/50/1 85/51/1 84/52/1
f 92/49/1 93/50/1 86/51/1 85/52/1
f 93/49/1 39/50/1 35/51/1 86/52/1
f 42/49/1 94/50/1 87/51/1 38/52/1
f 94/49/1 95/50/1 88/51/1 87/52/1
f 95/49/1 96/50/1 89/51/1 88/52/1
f 96/49/1 97/50/1 90/51/1 89/52/1
f 97/49/1 98/50/1 91/51/1 90/52/1
f 98/49/1 99/50/1 92/51/1 91/52/1
f 99/49/1 100/50/1 93/51/1 92/52/1
f 100/49/1 43/50/1 39/51/1 93/52/1
f 46/49/1 101/50/1 94/51/1 42/52/1
f 101/49/1 102/50/1 95/51/1 94/52/1
f 102/49/1 103/50/1 96/51/1 95/52/1
f 103/49/1 104/50/1 97/51/1 96/52/1
f 104/49/1 105/50/1 98/51/1 97/52/1
f 105/49/1 106/50/1 99/51/1 98/52/1
f 106/49/1 107/50/1 100/51/1 99/52/1
f 107/49/1 47/50/1 43/51/1 100/52/1
f 50/49/1 108/50/1 101/51/1 46/52/1
f 108/49/1 109/50/1 102/51/1 101/52/1
f 109/49/1 110/50/1 103/51/1 102/52/1
f 110/49/1 111/50/1 104/51/1 103/52/1
f 111/49/1 112/50/1 105/51/1 104/52/1
f 112/49/1 113/50/1 106/51/1 105/52/1
f 113/49/1 114/50/1 107/51/1 106/52/1
f 114/49/1 51/50/1 47/51/1 107/52/1
f 54/49/1 115/50/1 108/51/1 50/52/1
f 115/49/1 116/50/1 109/51/1 108/52/1
f 116/49/1 117/50/1 110/51/1 109/52/1
f 117/49/1 118/50/1 111/51/1 110/52/1
f 118/49/1 119/50/1 112/51/1 111/52/1
f 119/49/1 120/50/1 113/51/1 112/52/1
f 120/49/1 121/50/1 114/51/1 113/52/1
f 121/49/1 55/50/1 51/51/1 114/52/1
f 58/49/1 64/50/1 115/51/1 54/52/1
f 64/49/1 66/50/1 116/51/1 115/52/1
f 66/49/1 68/50/1 117/51/1 116/52/1
f 68/49/1 70/50/1 118/51/1 117/52/1
f 70/49/1 72/50/1 119/51/1 118/52/1
f 72/49/1 74/50/1 120/51/1 119/52/1
f 74/49/1 76/50/1 121/51/1 120/52/1
f 76/49/1 59/50/1 55/51/1 121/52/1

g mesh_0003
f 108/65/1 109/66/1 102/67/1 101/68/1
f 115/69/1 116/70/1 109/71/1 108/72/1

g mesh_0004
f 50/73/1 108/74/1 101/75/1 46/76/1
f 109/73/1 110/74/1 103/75/1 102/76/1
f 54/65/1 115/66/1 108/67/1 50/68/1
f 115/73/1 116/74/1 109/75/1 108/76/1
f 116/65/1 117/66/1 110/67/1 109/68/1
f 64/65/1 66/66/1 116/67/1 115/68/1

g mesh_0005
f 2/77/1 5/78/1 6/79/1 3/80/1
f 5/81/1 7/82/1 8/83/1 6/84/1
f 7/85/1 9/86/1 10/87/1 8/88/1
f 15/89/1 17/90/1 18/91/1 16/92/1
f 17/93/1 19/94/1 20/95/1 18/96/1
f 22/97/1 23/98/1 5/99/1 2/100/1
f 23/101/1 24/102/1 7/103/1 5/104/1
f 30/105/1 31/106/1 17/107/1 15/108/1
f 31/109/1 32/110/1 19/111/1 17/112/1
f 86/113/1 35/114/1 31/115/1 30/116/1
f 35/117/1 36/118/1 32/119/1 31/120/1
f 104/121/1 105/122/1 98/123/1 97/124/1
f 50/65/1 108/66/1 101/67/1 46/68/1
f 108/125/1 109/126/1 102/127/1 101/128/1
f 109/65/1 110/66/1 103/67/1 102/68/1
f 54/73/1 115/74/1 108/75/1 50/76/1
f 116/73/1 117/74/1 110/75/1 109/76/1
f 58/65/1 64/66/1 115/67/1 54/68/1
f 66/65/1 68/66/1 117/67/1 116/68/1

g mesh_0006
f 21/129/1 22/130/1 2/131/1 1/132/1
f 24/133/1 25/134/1 9/135/1 7/136/1
f 99/5/1 100/6/1 93/7/1 92/8/1
f 74/137/1 76/138/1 121/139/1 120/140/1
f 76/29/1 59/30/1 55/31/1 121/32/1
f 67/5/1 69/6/1 70/7/1 68/8/1
f 69/9/1 71/10/1 72/11/1 70/12/1

g mesh_0007
f 90/141/1 91/142/1 84/143/1 83/144/1
f 97/145/1 98/146/1 91/147/1 90/148/1
f 46/73/1 101/74/1 94/75/1 42/76/1
f 101/73/1 102/74/1 95/75/1 94/76/1
f 102/73/1 103/74/1 96/75/1 95/76/1
f 120/149/1 121/150/1 114/151/1 113/152/1
f 121/153/1 55/154/1 51/155/1 114/156/1

g mesh_0008
f 9/57/1 27/58/1 79/59/1 10/60/1

g mesh_0009
f 1/157/1 2/158/1 3/159/1 4/160/1
f 2/157/1 5/158/1 6/159/1 3/160/1
f 5/157/1 7/158/1 8/159/1 6/160/1
f 7/157/1 9/158/1 10/159/1 8/160/1
f 27/157/1 11/158/1 14/159/1 79/160/1
f 11/157/1 12/158/1 13/159/1 14/160/1
f 12/157/1 15/158/1 16/159/1 13/160/1
f 15/157/1 17/158/1 18/159/1 16/160/1
f 17/157/1 19/158/1 20/159/1 18/160/1
f 21/157/1 22/158/1 2/159/1 1/160/1
f 22/157/1 23/158/1 5/159/1 2/160/1
f 23/157/1 24/158/1 7/159/1 5/160/1
f 24/157/1 25/158/1 9/159/1 7/160/1
f 30/157/1 31/158/1 17/159/1 15/160/1
f 31/157/1 32/158/1 19/159/1 17/160/1
f 104/157/1 105/158/1 98/159/1 97/160/1
f 50/157/1 108/158/1 101/159/1 46/160/1
f 108/157/1 109/158/1 102/159/1 101/160/1
f 109/157/1 110/158/1 103/159/1 102/160/1
f 54/157/1 115/158/1 108/159/1 50/160/1
f 115/157/1 116/158/1 109/159/1 108/160/1
f 116/157/1 117/158/1 110/159/1 109/160/1
f 58/157/1 64/158/1 115/159/1 54/160/1
f 64/157/1 66/158/1 116/159/1 115/160/1
f 66/157/1 68/158/1 117/159/1 116/160/1
f 74/157/1 76/158/1 121/159/1 120/160/1
f 76/157/1 59/158/1 55/159/1 121/160/1

