# Wavefront OBJ file automatically generated by Tiled2Unity

# Vertices (Count = 121)
v 0 -1 0
v -1 -1 0
v -1 0 0
v 0 0 0
v -2 -1 0
v -2 0 0
v -3 -1 0
v -3 0 0
v -4 -1 0
v -4 0 0
v -5 -1 0
v -5 0 0
v -6 -1 0
v -6 0 0
v -7 -1 0
v -7 0 0
v -8 -1 0
v -8 0 0
v -9 -1 0
v -9 0 0
v -10 -1 0
v -10 0 0
v 0 -2 0
v -1 -2 0
v -2 -2 0
v -3 -2 0
v -4 -2 0
v -5 -2 0
v -6 -2 0
v -7 -2 0
v -8 -2 0
v -9 -2 0
v -10 -2 0
v 0 -3 0
v -1 -3 0
v -2 -3 0
v -3 -3 0
v -4 -3 0
v -5 -3 0
v -6 -3 0
v -7 -3 0
v -8 -3 0
v -9 -3 0
v -10 -3 0
v 0 -4 0
v -1 -4 0
v -2 -4 0
v -3 -4 0
v -4 -4 0
v -5 -4 0
v -6 -4 0
v -7 -4 0
v -8 -4 0
v -9 -4 0
v -10 -4 0
v 0 -5 0
v -1 -5 0
v -3 -5 0
v -4 -5 0
v -5 -5 0
v -6 -5 0
v -7 -5 0
v -8 -5 0
v -9 -5 0
v -10 -5 0
v 0 -6 0
v -1 -6 0
v -7 -6 0
v -8 -6 0
v -9 -6 0
v -10 -6 0
v 0 -7 0
v -1 -7 0
v -7 -7 0
v -8 -7 0
v -9 -7 0
v -10 -7 0
v 0 -8 0
v -1 -8 0
v -7 -8 0
v -8 -8 0
v -9 -8 0
v -10 -8 0
v 0 -9 0
v -1 -9 0
v -7 -9 0
v -8 -9 0
v -9 -9 0
v -10 -9 0
v 0 -10 0
v -1 -10 0
v -9 -10 0
v -10 -10 0
v -2 -5 0
v -2 -6 0
v -3 -6 0
v -4 -6 0
v -5 -6 0
v -6 -6 0
v -2 -7 0
v -3 -7 0
v -4 -7 0
v -5 -7 0
v -6 -7 0
v -2 -8 0
v -3 -8 0
v -4 -8 0
v -5 -8 0
v -6 -8 0
v -2 -9 0
v -3 -9 0
v -4 -9 0
v -5 -9 0
v -6 -9 0
v -2 -10 0
v -3 -10 0
v -4 -10 0
v -5 -10 0
v -6 -10 0
v -7 -10 0
v -8 -10 0

# Texture cooridinates (Count = 192)
vt 0.1000041 0.8666707
vt 0.1333293 0.8666707
vt 0.1333293 0.8999959
vt 0.1000041 0.8999959
vt 0.2000041 0.4666708
vt 0.2333293 0.4666708
vt 0.2333293 0.4999959
vt 0.2000041 0.4999959
vt 0.2333374 0.4666708
vt 0.2666626 0.4666708
vt 0.2666626 0.4999959
vt 0.2333374 0.4999959
vt 0.1333374 0.8333374
vt 0.1666626 0.8333374
vt 0.1666626 0.8666626
vt 0.1333374 0.8666626
vt 4.069011E-06 0.8000041
vt 0.03332926 0.8000041
vt 0.03332926 0.8333293
vt 4.069011E-06 0.8333293
vt 0.1000041 0.8333374
vt 0.1333293 0.8333374
vt 0.1333293 0.8666626
vt 0.1000041 0.8666626
vt 0.1333374 0.8000041
vt 0.1666626 0.8000041
vt 0.1666626 0.8333293
vt 0.1333374 0.8333293
vt 0.0333374 0.8000041
vt 0.06666259 0.8000041
vt 0.06666259 0.8333293
vt 0.0333374 0.8333293
vt 0.2333374 0.8333374
vt 0.2666626 0.8333374
vt 0.2666626 0.8666626
vt 0.2333374 0.8666626
vt 0.0333374 0.2666708
vt 0.06666259 0.2666708
vt 0.06666259 0.299996
vt 0.0333374 0.299996
vt 0.1333374 0.3333374
vt 0.1666626 0.3333374
vt 0.1666626 0.3666626
vt 0.1333374 0.3666626
vt 0.2333374 0.8000041
vt 0.2666626 0.8000041
vt 0.2666626 0.8333293
vt 0.2333374 0.8333293
vt 0.1666707 0.3333374
vt 0.1999959 0.3333374
vt 0.1999959 0.3666626
vt 0.1666707 0.3666626
vt 0.0333374 0.3000041
vt 0.06666259 0.3000041
vt 0.06666259 0.3333293
vt 0.0333374 0.3333293
vt 0.1000041 0.3333374
vt 0.1333293 0.3333374
vt 0.1333293 0.3666626
vt 0.1000041 0.3666626
vt 0.1333374 0.6666707
vt 0.1666626 0.6666707
vt 0.1666626 0.6999959
vt 0.1333374 0.6999959
vt 0.1000041 0.03333741
vt 0.1333293 0.03333741
vt 0.1333293 0.06666261
vt 0.1000041 0.06666261
vt 0.2333374 0.06667072
vt 0.2666626 0.06667072
vt 0.2666626 0.09999591
vt 0.2333374 0.09999591
vt 0.700004 0.1666707
vt 0.7333292 0.1666707
vt 0.7333292 0.1999959
vt 0.700004 0.1999959
vt 0.700004 0.1333374
vt 0.7333292 0.1333374
vt 0.7333292 0.1666626
vt 0.700004 0.1666626
vt 0.7666708 0.1333374
vt 0.799996 0.1333374
vt 0.799996 0.1666626
vt 0.7666708 0.1666626
vt 0.8000041 0.1333374
vt 0.8333293 0.1333374
vt 0.8333293 0.1666626
vt 0.8000041 0.1666626
vt 0.7666708 0.1000041
vt 0.799996 0.1000041
vt 0.799996 0.1333293
vt 0.7666708 0.1333293
vt 0.8000041 0.1000041
vt 0.8333293 0.1000041
vt 0.8333293 0.1333293
vt 0.8000041 0.1333293
vt 0.1000041 0.4333374
vt 0.1333293 0.4333374
vt 0.1333293 0.4666626
vt 0.1000041 0.4666626
vt 0.1333374 0.4333374
vt 0.1666626 0.4333374
vt 0.1666626 0.4666626
vt 0.1333374 0.4666626
vt 0.1000041 0.4000041
vt 0.1333293 0.4000041
vt 0.1333293 0.4333293
vt 0.1000041 0.4333293
vt 0.1333374 0.4000041
vt 0.1666626 0.4000041
vt 0.1666626 0.4333293
vt 0.1333374 0.4333293
vt 0.1666707 0.4000041
vt 0.1999959 0.4000041
vt 0.1999959 0.4333293
vt 0.1666707 0.4333293
vt 0.2000041 0.4000041
vt 0.2333293 0.4000041
vt 0.2333293 0.4333293
vt 0.2000041 0.4333293
vt 0.1000041 0.3666707
vt 0.1333293 0.3666707
vt 0.1333293 0.3999959
vt 0.1000041 0.3999959
vt 0.1333374 0.3666707
vt 0.1666626 0.3666707
vt 0.1666626 0.3999959
vt 0.1333374 0.3999959
vt 0.1666707 0.3666707
vt 0.1999959 0.3666707
vt 0.1999959 0.3999959
vt 0.1666707 0.3999959
vt 0.2000041 0.3666707
vt 0.2333293 0.3666707
vt 0.2333293 0.3999959
vt 0.2000041 0.3999959
vt 0.1333374 0.7666707
vt 0.1666626 0.7666707
vt 0.1666626 0.7999959
vt 0.1333374 0.7999959
vt 0.2666707 0.2666708
vt 0.2999959 0.2666708
vt 0.2999959 0.299996
vt 0.2666707 0.299996
vt 0.1333374 0.7333374
vt 0.1666626 0.7333374
vt 0.1666626 0.7666626
vt 0.1333374 0.7666626
vt 0.1666707 0.4333374
vt 0.1999959 0.4333374
vt 0.1999959 0.4666626
vt 0.1666707 0.4666626
vt 0.2000041 0.4333374
vt 0.2333293 0.4333374
vt 0.2333293 0.4666626
vt 0.2000041 0.4666626
vt 0.2333374 0.4333374
vt 0.2666626 0.4333374
vt 0.2666626 0.4666626
vt 0.2333374 0.4666626
vt 0.2333374 0.4000041
vt 0.2666626 0.4000041
vt 0.2666626 0.4333293
vt 0.2333374 0.4333293
vt 0.2333374 0.3666707
vt 0.2666626 0.3666707
vt 0.2666626 0.3999959
vt 0.2333374 0.3999959
vt 0.2000041 0.3333374
vt 0.2333293 0.3333374
vt 0.2333293 0.3666626
vt 0.2000041 0.3666626
vt 0.2333374 0.3333374
vt 0.2666626 0.3333374
vt 0.2666626 0.3666626
vt 0.2333374 0.3666626
vt 0.0333374 0.1333374
vt 0.06666259 0.1333374
vt 0.06666259 0.1666626
vt 0.0333374 0.1666626
vt 0.3000041 0.6333374
vt 0.3333293 0.6333374
vt 0.3333293 0.6666626
vt 0.3000041 0.6666626
vt 0.3333374 0.6333374
vt 0.3666626 0.6333374
vt 0.3666626 0.6666626
vt 0.3333374 0.6666626
vt 0.0001220703 0.0001220703
vt 0.9998779 0.0001220703
vt 0.9998779 0.9998779
vt 0.0001220703 0.9998779

# Normal
vn 0 0 -1

# Groups (Count = 6)

g mesh_0001
f 1/1/1 2/2/1 3/3/1 4/4/1
f 2/1/1 5/2/1 6/3/1 3/4/1
f 5/1/1 7/2/1 8/3/1 6/4/1
f 7/5/1 9/6/1 10/7/1 8/8/1
f 9/9/1 11/10/1 12/11/1 10/12/1
f 11/13/1 13/14/1 14/15/1 12/16/1
f 13/13/1 15/14/1 16/15/1 14/16/1
f 15/13/1 17/14/1 18/15/1 16/16/1
f 17/13/1 19/14/1 20/15/1 18/16/1
f 19/13/1 21/14/1 22/15/1 20/16/1
f 23/17/1 24/18/1 2/19/1 1/20/1
f 24/21/1 25/22/1 5/23/1 2/24/1
f 25/21/1 26/22/1 7/23/1 5/24/1
f 26/25/1 27/26/1 9/27/1 7/28/1
f 27/25/1 28/26/1 11/27/1 9/28/1
f 28/25/1 29/26/1 13/27/1 11/28/1
f 29/25/1 30/26/1 15/27/1 13/28/1
f 30/25/1 31/26/1 17/27/1 15/28/1
f 31/25/1 32/26/1 19/27/1 17/28/1
f 32/29/1 33/30/1 21/31/1 19/32/1
f 34/33/1 35/34/1 24/35/1 23/36/1
f 35/37/1 36/38/1 25/39/1 24/40/1
f 36/37/1 37/38/1 26/39/1 25/40/1
f 37/37/1 38/38/1 27/39/1 26/40/1
f 38/37/1 39/38/1 28/39/1 27/40/1
f 39/37/1 40/38/1 29/39/1 28/40/1
f 40/37/1 41/38/1 30/39/1 29/40/1
f 41/41/1 42/42/1 31/43/1 30/44/1
f 42/41/1 43/42/1 32/43/1 31/44/1
f 43/45/1 44/46/1 33/47/1 32/48/1
f 45/33/1 46/34/1 35/35/1 34/36/1
f 46/37/1 47/38/1 36/39/1 35/40/1
f 47/37/1 48/38/1 37/39/1 36/40/1
f 48/37/1 49/38/1 38/39/1 37/40/1
f 49/37/1 50/38/1 39/39/1 38/40/1
f 50/37/1 51/38/1 40/39/1 39/40/1
f 51/41/1 52/42/1 41/43/1 40/44/1
f 52/41/1 53/42/1 42/43/1 41/44/1
f 53/41/1 54/42/1 43/43/1 42/44/1
f 54/45/1 55/46/1 44/47/1 43/48/1
f 56/33/1 57/34/1 46/35/1 45/36/1
f 58/37/1 59/38/1 49/39/1 48/40/1
f 59/37/1 60/38/1 50/39/1 49/40/1
f 60/37/1 61/38/1 51/39/1 50/40/1
f 61/41/1 62/42/1 52/43/1 51/44/1
f 62/49/1 63/50/1 53/51/1 52/52/1
f 63/41/1 64/42/1 54/43/1 53/44/1
f 64/45/1 65/46/1 55/47/1 54/48/1
f 66/33/1 67/34/1 57/35/1 56/36/1
f 68/53/1 69/54/1 63/55/1 62/56/1
f 69/53/1 70/54/1 64/55/1 63/56/1
f 70/45/1 71/46/1 65/47/1 64/48/1
f 72/33/1 73/34/1 67/35/1 66/36/1
f 74/53/1 75/54/1 69/55/1 68/56/1
f 75/53/1 76/54/1 70/55/1 69/56/1
f 76/45/1 77/46/1 71/47/1 70/48/1
f 78/33/1 79/34/1 73/35/1 72/36/1
f 80/57/1 81/58/1 75/59/1 74/60/1
f 81/57/1 82/58/1 76/59/1 75/60/1
f 82/45/1 83/46/1 77/47/1 76/48/1
f 84/33/1 85/34/1 79/35/1 78/36/1
f 86/53/1 87/54/1 81/55/1 80/56/1
f 87/61/1 88/62/1 82/63/1 81/64/1
f 88/45/1 89/46/1 83/47/1 82/48/1
f 90/33/1 91/34/1 85/35/1 84/36/1
f 92/45/1 93/46/1 89/47/1 88/48/1

g mesh_0002
f 57/65/1 94/66/1 47/67/1 46/68/1
f 94/65/1 58/66/1 48/67/1 47/68/1
f 67/65/1 95/66/1 94/67/1 57/68/1
f 95/65/1 96/66/1 58/67/1 94/68/1
f 96/65/1 97/66/1 59/67/1 58/68/1
f 97/65/1 98/66/1 60/67/1 59/68/1
f 98/65/1 99/66/1 61/67/1 60/68/1
f 99/65/1 68/66/1 62/67/1 61/68/1
f 73/65/1 100/66/1 95/67/1 67/68/1
f 100/65/1 101/66/1 96/67/1 95/68/1
f 101/65/1 102/66/1 97/67/1 96/68/1
f 102/65/1 103/66/1 98/67/1 97/68/1
f 103/65/1 104/66/1 99/67/1 98/68/1
f 104/65/1 74/66/1 68/67/1 99/68/1
f 79/65/1 105/66/1 100/67/1 73/68/1
f 105/65/1 106/66/1 101/67/1 100/68/1
f 106/65/1 107/66/1 102/67/1 101/68/1
f 107/65/1 108/66/1 103/67/1 102/68/1
f 108/65/1 109/66/1 104/67/1 103/68/1
f 109/65/1 80/66/1 74/67/1 104/68/1
f 85/65/1 110/66/1 105/67/1 79/68/1
f 110/65/1 111/66/1 106/67/1 105/68/1
f 111/65/1 112/66/1 107/67/1 106/68/1
f 112/65/1 113/66/1 108/67/1 107/68/1
f 113/65/1 114/66/1 109/67/1 108/68/1
f 114/65/1 86/66/1 80/67/1 109/68/1
f 91/65/1 115/66/1 110/67/1 85/68/1
f 115/65/1 116/66/1 111/67/1 110/68/1
f 116/65/1 117/66/1 112/67/1 111/68/1
f 117/65/1 118/66/1 113/67/1 112/68/1
f 118/65/1 119/66/1 114/67/1 113/68/1
f 119/65/1 120/66/1 86/67/1 114/68/1
f 120/65/1 121/66/1 87/67/1 86/68/1
f 121/65/1 92/66/1 88/67/1 87/68/1

g mesh_0003
f 1/69/1 2/70/1 3/71/1 4/72/1
f 2/69/1 5/70/1 6/71/1 3/72/1
f 13/73/1 15/74/1 16/75/1 14/76/1
f 29/77/1 30/78/1 15/79/1 13/80/1
f 84/81/1 85/82/1 79/83/1 78/84/1
f 85/85/1 110/86/1 105/87/1 79/88/1
f 90/89/1 91/90/1 85/91/1 84/92/1
f 91/93/1 115/94/1 110/95/1 85/96/1

g mesh_0004
f 23/97/1 24/98/1 2/99/1 1/100/1
f 24/101/1 25/102/1 5/103/1 2/104/1
f 34/105/1 35/106/1 24/107/1 23/108/1
f 35/109/1 36/110/1 25/111/1 24/112/1
f 36/113/1 37/114/1 26/115/1 25/116/1
f 37/117/1 38/118/1 27/119/1 26/120/1
f 45/121/1 46/122/1 35/123/1 34/124/1
f 46/125/1 47/126/1 36/127/1 35/128/1
f 47/129/1 48/130/1 37/131/1 36/132/1
f 48/133/1 49/134/1 38/135/1 37/136/1
f 88/137/1 89/138/1 83/139/1 82/140/1
f 115/141/1 116/142/1 111/143/1 110/144/1
f 92/145/1 93/146/1 89/147/1 88/148/1

g mesh_0005
f 25/149/1 26/150/1 7/151/1 5/152/1
f 26/153/1 27/154/1 9/155/1 7/156/1
f 27/157/1 28/158/1 11/159/1 9/160/1
f 38/161/1 39/162/1 28/163/1 27/164/1
f 49/165/1 50/166/1 39/167/1 38/168/1
f 56/33/1 57/34/1 46/35/1 45/36/1
f 58/169/1 59/170/1 49/171/1 48/172/1
f 59/173/1 60/174/1 50/175/1 49/176/1

g mesh_0006
f 57/65/1 94/66/1 47/67/1 46/68/1
f 94/65/1 58/66/1 48/67/1 47/68/1

g mesh_0007
f 32/177/1 33/178/1 21/179/1 19/180/1

g mesh_0008
f 70/181/1 71/182/1 65/183/1 64/184/1
f 72/185/1 73/186/1 67/187/1 66/188/1

g mesh_0009
f 2/189/1 5/190/1 6/191/1 3/192/1
f 5/189/1 7/190/1 8/191/1 6/192/1
f 7/189/1 9/190/1 10/191/1 8/192/1
f 9/189/1 11/190/1 12/191/1 10/192/1
f 11/189/1 13/190/1 14/191/1 12/192/1
f 13/189/1 15/190/1 16/191/1 14/192/1
f 15/189/1 17/190/1 18/191/1 16/192/1
f 17/189/1 19/190/1 20/191/1 18/192/1
f 19/189/1 21/190/1 22/191/1 20/192/1
f 23/189/1 24/190/1 2/191/1 1/192/1
f 24/189/1 25/190/1 5/191/1 2/192/1
f 28/189/1 29/190/1 13/191/1 11/192/1
f 29/189/1 30/190/1 15/191/1 13/192/1
f 30/189/1 31/190/1 17/191/1 15/192/1
f 31/189/1 32/190/1 19/191/1 17/192/1
f 34/189/1 35/190/1 24/191/1 23/192/1
f 35/189/1 36/190/1 25/191/1 24/192/1
f 36/189/1 37/190/1 26/191/1 25/192/1
f 37/189/1 38/190/1 27/191/1 26/192/1
f 45/189/1 46/190/1 35/191/1 34/192/1
f 46/189/1 47/190/1 36/191/1 35/192/1
f 47/189/1 48/190/1 37/191/1 36/192/1
f 48/189/1 49/190/1 38/191/1 37/192/1
f 84/189/1 85/190/1 79/191/1 78/192/1
f 88/189/1 89/190/1 83/191/1 82/192/1
f 90/189/1 91/190/1 85/191/1 84/192/1
f 91/189/1 115/190/1 110/191/1 85/192/1
f 115/189/1 116/190/1 111/191/1 110/192/1
f 92/189/1 93/190/1 89/191/1 88/192/1

